<svg xmlns="http://www.w3.org/2000/svg" xmlns:xlink="http://www.w3.org/1999/xlink" width="500" zoomAndPan="magnify" viewBox="0 0 375 60" height="80" preserveAspectRatio="xMidYMid meet" version="1.0"><defs><g/><clipPath id="a73b3a47e1"><rect x="0" width="367" y="0" height="43"/></clipPath></defs><g transform="matrix(1, 0, 0, 1, 4, 10)"><g clip-path="url(#a73b3a47e1)"><g fill="#000000" fill-opacity="1"><g transform="translate(0.663127, 33.447009)"><g><path d="M 26.5625 -18.40625 C 26.382812 -18.40625 26.222656 -18.40625 26.078125 -18.40625 C 25.941406 -18.40625 25.800781 -18.40625 25.65625 -18.40625 C 24.144531 -18.40625 22.628906 -18.410156 21.109375 -18.421875 C 19.585938 -18.441406 18.070312 -18.453125 16.5625 -18.453125 C 15.84375 -18.484375 15.332031 -18.429688 15.03125 -18.296875 C 14.738281 -18.171875 14.5625 -18.03125 14.5 -17.875 C 14.445312 -17.71875 14.421875 -17.59375 14.421875 -17.5 C 14.441406 -17.363281 14.535156 -17.179688 14.703125 -16.953125 C 14.878906 -16.722656 15.253906 -16.519531 15.828125 -16.34375 C 15.941406 -16.3125 16.226562 -16.238281 16.6875 -16.125 C 17.144531 -16.019531 17.671875 -15.894531 18.265625 -15.75 C 18.867188 -15.601562 19.453125 -15.457031 20.015625 -15.3125 C 20.578125 -15.175781 21.03125 -15.050781 21.375 -14.9375 C 21.96875 -14.707031 22.554688 -14.441406 23.140625 -14.140625 C 23.734375 -13.835938 24.285156 -13.488281 24.796875 -13.09375 C 26.140625 -12.113281 27.0625 -10.820312 27.5625 -9.21875 C 28.0625 -7.625 28 -6.039062 27.375 -4.46875 C 26.882812 -3.289062 26.1875 -2.394531 25.28125 -1.78125 C 24.382812 -1.164062 23.378906 -0.703125 22.265625 -0.390625 C 21.378906 -0.128906 20.453125 0 19.484375 0 C 16.878906 0 14.265625 -0.00390625 11.640625 -0.015625 C 9.023438 -0.0351562 6.414062 -0.0546875 3.8125 -0.078125 C 3.726562 -0.078125 3.628906 -0.09375 3.515625 -0.125 C 3.285156 -0.15625 3.15625 -0.382812 3.125 -0.8125 C 3.070312 -1.332031 3.035156 -2.023438 3.015625 -2.890625 C 3.003906 -3.765625 3.003906 -4.703125 3.015625 -5.703125 C 3.035156 -6.703125 3.066406 -7.648438 3.109375 -8.546875 C 3.148438 -9.453125 3.203125 -10.191406 3.265625 -10.765625 C 3.316406 -11.222656 3.570312 -11.453125 4.03125 -11.453125 C 4.175781 -11.453125 4.328125 -11.453125 4.484375 -11.453125 C 4.640625 -11.453125 4.789062 -11.453125 4.9375 -11.453125 C 6.25 -11.484375 7.554688 -11.519531 8.859375 -11.5625 C 10.160156 -11.601562 11.457031 -11.65625 12.75 -11.71875 C 13.09375 -11.738281 13.425781 -11.789062 13.75 -11.875 C 14.082031 -11.96875 14.390625 -12.085938 14.671875 -12.234375 C 15.191406 -12.429688 15.460938 -12.726562 15.484375 -13.125 C 15.515625 -13.53125 15.285156 -13.859375 14.796875 -14.109375 C 14.515625 -14.316406 14.203125 -14.484375 13.859375 -14.609375 C 13.515625 -14.734375 13.171875 -14.84375 12.828125 -14.9375 C 12.054688 -15.132812 11.273438 -15.3125 10.484375 -15.46875 C 9.703125 -15.625 8.925781 -15.800781 8.15625 -16 C 7.175781 -16.257812 6.265625 -16.625 5.421875 -17.09375 C 4.578125 -17.570312 3.859375 -18.238281 3.265625 -19.09375 C 2.722656 -19.832031 2.378906 -20.734375 2.234375 -21.796875 C 2.085938 -22.859375 2.164062 -23.925781 2.46875 -25 C 2.769531 -26.070312 3.332031 -27.03125 4.15625 -27.875 C 4.988281 -28.71875 6.117188 -29.296875 7.546875 -29.609375 C 8.660156 -29.859375 9.78125 -30 10.90625 -30.03125 C 12.039062 -30.0625 13.179688 -30.046875 14.328125 -29.984375 C 16.078125 -29.929688 17.820312 -29.910156 19.5625 -29.921875 C 21.3125 -29.941406 23.070312 -29.953125 24.84375 -29.953125 C 25.007812 -29.953125 25.191406 -29.953125 25.390625 -29.953125 C 25.597656 -29.953125 25.816406 -29.953125 26.046875 -29.953125 C 26.503906 -29.953125 26.757812 -29.722656 26.8125 -29.265625 C 26.988281 -27.691406 27.078125 -26.015625 27.078125 -24.234375 C 27.078125 -22.460938 27.132812 -20.75 27.25 -19.09375 C 27.25 -18.914062 27.179688 -18.753906 27.046875 -18.609375 C 26.921875 -18.472656 26.757812 -18.40625 26.5625 -18.40625 Z M 26.5625 -18.40625 "/></g></g></g><g fill="#000000" fill-opacity="1"><g transform="translate(30.308666, 33.447009)"><g><path d="M 9.359375 -29.734375 C 9.378906 -29.109375 9.40625 -28.492188 9.4375 -27.890625 C 9.46875 -27.285156 9.484375 -26.695312 9.484375 -26.125 C 9.484375 -24.925781 9.46875 -23.734375 9.4375 -22.546875 C 9.40625 -21.359375 9.390625 -20.164062 9.390625 -18.96875 C 9.390625 -18.25 9.40625 -17.539062 9.4375 -16.84375 C 9.46875 -16.144531 9.507812 -15.453125 9.5625 -14.765625 C 9.707031 -13.421875 10.4375 -12.5625 11.75 -12.1875 C 12.613281 -11.925781 13.492188 -11.78125 14.390625 -11.75 C 15.296875 -11.726562 16.191406 -11.832031 17.078125 -12.0625 C 17.796875 -12.226562 18.300781 -12.519531 18.59375 -12.9375 C 18.894531 -13.351562 19.046875 -13.960938 19.046875 -14.765625 C 19.109375 -16.304688 19.148438 -17.851562 19.171875 -19.40625 C 19.203125 -20.96875 19.234375 -22.535156 19.265625 -24.109375 C 19.296875 -24.992188 19.320312 -25.894531 19.34375 -26.8125 C 19.375 -27.726562 19.421875 -28.660156 19.484375 -29.609375 C 19.484375 -30.003906 19.679688 -30.234375 20.078125 -30.296875 C 21.023438 -30.429688 21.96875 -30.445312 22.90625 -30.34375 C 23.851562 -30.25 24.800781 -30.203125 25.75 -30.203125 C 26.144531 -30.203125 26.375 -30.003906 26.4375 -29.609375 C 26.4375 -29.460938 26.441406 -29.3125 26.453125 -29.15625 C 26.460938 -29 26.46875 -28.847656 26.46875 -28.703125 C 26.445312 -27.273438 26.410156 -25.84375 26.359375 -24.40625 C 26.316406 -22.976562 26.296875 -21.550781 26.296875 -20.125 C 26.273438 -18.289062 26.273438 -16.457031 26.296875 -14.625 C 26.328125 -12.800781 26.359375 -10.972656 26.390625 -9.140625 C 26.390625 -8.535156 26.375 -7.929688 26.34375 -7.328125 C 26.3125 -6.734375 26.285156 -6.132812 26.265625 -5.53125 C 26.265625 -4.789062 26.082031 -4.140625 25.71875 -3.578125 C 25.363281 -3.023438 24.882812 -2.546875 24.28125 -2.140625 C 23.425781 -1.546875 22.519531 -1.066406 21.5625 -0.703125 C 20.601562 -0.347656 19.625 -0.0976562 18.625 0.046875 C 16.625 0.390625 14.640625 0.492188 12.671875 0.359375 C 10.710938 0.234375 8.765625 -0.0820312 6.828125 -0.59375 C 5.535156 -0.9375 4.445312 -1.601562 3.5625 -2.59375 C 2.675781 -3.582031 2.257812 -4.921875 2.3125 -6.609375 C 2.34375 -8.066406 2.320312 -9.515625 2.25 -10.953125 C 2.175781 -12.398438 2.140625 -13.851562 2.140625 -15.3125 C 2.140625 -16.226562 2.160156 -17.144531 2.203125 -18.0625 C 2.253906 -18.976562 2.289062 -19.894531 2.3125 -20.8125 C 2.3125 -22.125 2.3125 -23.445312 2.3125 -24.78125 C 2.3125 -26.113281 2.328125 -27.4375 2.359375 -28.75 C 2.359375 -28.914062 2.359375 -29.082031 2.359375 -29.25 C 2.359375 -29.425781 2.375 -29.601562 2.40625 -29.78125 C 2.488281 -30.238281 2.757812 -30.46875 3.21875 -30.46875 C 4.101562 -30.4375 5.003906 -30.410156 5.921875 -30.390625 C 6.835938 -30.378906 7.765625 -30.359375 8.703125 -30.328125 C 9.109375 -30.328125 9.328125 -30.128906 9.359375 -29.734375 Z M 9.359375 -29.734375 "/></g></g></g><g fill="#000000" fill-opacity="1"><g transform="translate(58.538423, 33.447009)"><g><path d="M 24.40625 -7.125 C 23.75 -6.09375 23.097656 -5.046875 22.453125 -3.984375 C 21.816406 -2.929688 21.210938 -1.832031 20.640625 -0.6875 C 20.441406 -0.34375 20.140625 -0.171875 19.734375 -0.171875 C 18.960938 -0.171875 18.179688 -0.171875 17.390625 -0.171875 C 16.609375 -0.171875 15.832031 -0.171875 15.0625 -0.171875 C 14.769531 -0.140625 14.550781 -0.203125 14.40625 -0.359375 C 14.269531 -0.515625 14.128906 -0.695312 13.984375 -0.90625 C 13.410156 -1.84375 12.84375 -2.773438 12.28125 -3.703125 C 11.726562 -4.640625 11.164062 -5.566406 10.59375 -6.484375 C 10.507812 -6.597656 10.429688 -6.71875 10.359375 -6.84375 C 10.285156 -6.96875 10.207031 -7.085938 10.125 -7.203125 C 9.894531 -7.523438 9.738281 -7.671875 9.65625 -7.640625 C 9.539062 -7.609375 9.484375 -7.394531 9.484375 -7 C 9.453125 -6.675781 9.4375 -6.347656 9.4375 -6.015625 C 9.4375 -5.691406 9.4375 -5.375 9.4375 -5.0625 C 9.40625 -4.40625 9.394531 -3.75 9.40625 -3.09375 C 9.425781 -2.4375 9.4375 -1.773438 9.4375 -1.109375 C 9.4375 -0.453125 9.132812 -0.125 8.53125 -0.125 C 7.644531 -0.1875 6.742188 -0.226562 5.828125 -0.25 C 4.921875 -0.28125 3.992188 -0.3125 3.046875 -0.34375 C 2.648438 -0.375 2.4375 -0.585938 2.40625 -0.984375 C 2.375 -1.410156 2.335938 -1.84375 2.296875 -2.28125 C 2.253906 -2.726562 2.234375 -3.171875 2.234375 -3.609375 C 2.234375 -5.984375 2.234375 -8.351562 2.234375 -10.71875 C 2.234375 -13.09375 2.21875 -15.457031 2.1875 -17.8125 C 2.1875 -19.613281 2.175781 -21.40625 2.15625 -23.1875 C 2.144531 -24.976562 2.140625 -26.773438 2.140625 -28.578125 C 2.140625 -28.742188 2.15625 -28.957031 2.1875 -29.21875 C 2.21875 -29.613281 2.429688 -29.828125 2.828125 -29.859375 C 3.398438 -29.859375 3.960938 -29.863281 4.515625 -29.875 C 5.078125 -29.894531 5.628906 -29.90625 6.171875 -29.90625 C 7.066406 -29.90625 7.945312 -29.90625 8.8125 -29.90625 C 9.6875 -29.90625 10.566406 -29.921875 11.453125 -29.953125 C 12.253906 -29.972656 12.898438 -29.644531 13.390625 -28.96875 C 14.015625 -28.101562 14.640625 -27.238281 15.265625 -26.375 C 15.898438 -25.519531 16.546875 -24.664062 17.203125 -23.8125 C 17.285156 -23.695312 17.414062 -23.523438 17.59375 -23.296875 C 17.851562 -22.984375 18.097656 -23 18.328125 -23.34375 C 18.441406 -23.507812 18.550781 -23.675781 18.65625 -23.84375 C 18.769531 -24.019531 18.882812 -24.195312 19 -24.375 C 19.519531 -25.175781 20.046875 -25.972656 20.578125 -26.765625 C 21.109375 -27.566406 21.644531 -28.367188 22.1875 -29.171875 C 22.300781 -29.378906 22.425781 -29.546875 22.5625 -29.671875 C 22.707031 -29.796875 22.910156 -29.859375 23.171875 -29.859375 C 24.566406 -29.859375 25.976562 -29.859375 27.40625 -29.859375 C 28.84375 -29.859375 30.289062 -29.859375 31.75 -29.859375 C 32.144531 -29.859375 32.375 -29.675781 32.4375 -29.3125 C 32.46875 -29.050781 32.484375 -28.847656 32.484375 -28.703125 C 32.484375 -27.503906 32.484375 -26.296875 32.484375 -25.078125 C 32.484375 -23.859375 32.484375 -22.632812 32.484375 -21.40625 C 32.453125 -18.113281 32.414062 -14.820312 32.375 -11.53125 C 32.332031 -8.25 32.28125 -4.976562 32.21875 -1.71875 C 32.21875 -0.914062 32.144531 -0.441406 32 -0.296875 C 31.863281 -0.148438 31.378906 -0.078125 30.546875 -0.078125 C 29.859375 -0.078125 29.1875 -0.078125 28.53125 -0.078125 C 27.875 -0.078125 27.21875 -0.078125 26.5625 -0.078125 C 25.925781 -0.109375 25.53125 -0.203125 25.375 -0.359375 C 25.21875 -0.515625 25.140625 -0.910156 25.140625 -1.546875 C 25.109375 -2.398438 25.09375 -3.265625 25.09375 -4.140625 C 25.09375 -5.015625 25.09375 -5.894531 25.09375 -6.78125 C 25.09375 -6.863281 25.082031 -6.992188 25.0625 -7.171875 C 25.03125 -7.398438 24.972656 -7.539062 24.890625 -7.59375 C 24.796875 -7.625 24.632812 -7.46875 24.40625 -7.125 Z M 24.40625 -7.125 "/></g></g></g><g fill="#000000" fill-opacity="1"><g transform="translate(92.774521, 33.447009)"><g><path d="M 24.40625 -7.125 C 23.75 -6.09375 23.097656 -5.046875 22.453125 -3.984375 C 21.816406 -2.929688 21.210938 -1.832031 20.640625 -0.6875 C 20.441406 -0.34375 20.140625 -0.171875 19.734375 -0.171875 C 18.960938 -0.171875 18.179688 -0.171875 17.390625 -0.171875 C 16.609375 -0.171875 15.832031 -0.171875 15.0625 -0.171875 C 14.769531 -0.140625 14.550781 -0.203125 14.40625 -0.359375 C 14.269531 -0.515625 14.128906 -0.695312 13.984375 -0.90625 C 13.410156 -1.84375 12.84375 -2.773438 12.28125 -3.703125 C 11.726562 -4.640625 11.164062 -5.566406 10.59375 -6.484375 C 10.507812 -6.597656 10.429688 -6.71875 10.359375 -6.84375 C 10.285156 -6.96875 10.207031 -7.085938 10.125 -7.203125 C 9.894531 -7.523438 9.738281 -7.671875 9.65625 -7.640625 C 9.539062 -7.609375 9.484375 -7.394531 9.484375 -7 C 9.453125 -6.675781 9.4375 -6.347656 9.4375 -6.015625 C 9.4375 -5.691406 9.4375 -5.375 9.4375 -5.0625 C 9.40625 -4.40625 9.394531 -3.75 9.40625 -3.09375 C 9.425781 -2.4375 9.4375 -1.773438 9.4375 -1.109375 C 9.4375 -0.453125 9.132812 -0.125 8.53125 -0.125 C 7.644531 -0.1875 6.742188 -0.226562 5.828125 -0.25 C 4.921875 -0.28125 3.992188 -0.3125 3.046875 -0.34375 C 2.648438 -0.375 2.4375 -0.585938 2.40625 -0.984375 C 2.375 -1.410156 2.335938 -1.84375 2.296875 -2.28125 C 2.253906 -2.726562 2.234375 -3.171875 2.234375 -3.609375 C 2.234375 -5.984375 2.234375 -8.351562 2.234375 -10.71875 C 2.234375 -13.09375 2.21875 -15.457031 2.1875 -17.8125 C 2.1875 -19.613281 2.175781 -21.40625 2.15625 -23.1875 C 2.144531 -24.976562 2.140625 -26.773438 2.140625 -28.578125 C 2.140625 -28.742188 2.15625 -28.957031 2.1875 -29.21875 C 2.21875 -29.613281 2.429688 -29.828125 2.828125 -29.859375 C 3.398438 -29.859375 3.960938 -29.863281 4.515625 -29.875 C 5.078125 -29.894531 5.628906 -29.90625 6.171875 -29.90625 C 7.066406 -29.90625 7.945312 -29.90625 8.8125 -29.90625 C 9.6875 -29.90625 10.566406 -29.921875 11.453125 -29.953125 C 12.253906 -29.972656 12.898438 -29.644531 13.390625 -28.96875 C 14.015625 -28.101562 14.640625 -27.238281 15.265625 -26.375 C 15.898438 -25.519531 16.546875 -24.664062 17.203125 -23.8125 C 17.285156 -23.695312 17.414062 -23.523438 17.59375 -23.296875 C 17.851562 -22.984375 18.097656 -23 18.328125 -23.34375 C 18.441406 -23.507812 18.550781 -23.675781 18.65625 -23.84375 C 18.769531 -24.019531 18.882812 -24.195312 19 -24.375 C 19.519531 -25.175781 20.046875 -25.972656 20.578125 -26.765625 C 21.109375 -27.566406 21.644531 -28.367188 22.1875 -29.171875 C 22.300781 -29.378906 22.425781 -29.546875 22.5625 -29.671875 C 22.707031 -29.796875 22.910156 -29.859375 23.171875 -29.859375 C 24.566406 -29.859375 25.976562 -29.859375 27.40625 -29.859375 C 28.84375 -29.859375 30.289062 -29.859375 31.75 -29.859375 C 32.144531 -29.859375 32.375 -29.675781 32.4375 -29.3125 C 32.46875 -29.050781 32.484375 -28.847656 32.484375 -28.703125 C 32.484375 -27.503906 32.484375 -26.296875 32.484375 -25.078125 C 32.484375 -23.859375 32.484375 -22.632812 32.484375 -21.40625 C 32.453125 -18.113281 32.414062 -14.820312 32.375 -11.53125 C 32.332031 -8.25 32.28125 -4.976562 32.21875 -1.71875 C 32.21875 -0.914062 32.144531 -0.441406 32 -0.296875 C 31.863281 -0.148438 31.378906 -0.078125 30.546875 -0.078125 C 29.859375 -0.078125 29.1875 -0.078125 28.53125 -0.078125 C 27.875 -0.078125 27.21875 -0.078125 26.5625 -0.078125 C 25.925781 -0.109375 25.53125 -0.203125 25.375 -0.359375 C 25.21875 -0.515625 25.140625 -0.910156 25.140625 -1.546875 C 25.109375 -2.398438 25.09375 -3.265625 25.09375 -4.140625 C 25.09375 -5.015625 25.09375 -5.894531 25.09375 -6.78125 C 25.09375 -6.863281 25.082031 -6.992188 25.0625 -7.171875 C 25.03125 -7.398438 24.972656 -7.539062 24.890625 -7.59375 C 24.796875 -7.625 24.632812 -7.46875 24.40625 -7.125 Z M 24.40625 -7.125 "/></g></g></g><g fill="#000000" fill-opacity="1"><g transform="translate(127.010619, 33.447009)"><g><path d="M 8.75 -0.21875 L 3.046875 -0.21875 C 2.648438 -0.21875 2.4375 -0.414062 2.40625 -0.8125 C 2.375 -1.238281 2.335938 -1.660156 2.296875 -2.078125 C 2.253906 -2.492188 2.234375 -2.914062 2.234375 -3.34375 C 2.234375 -5.71875 2.234375 -8.09375 2.234375 -10.46875 C 2.234375 -12.84375 2.21875 -15.203125 2.1875 -17.546875 C 2.1875 -19.378906 2.175781 -21.195312 2.15625 -23 C 2.144531 -24.800781 2.140625 -26.617188 2.140625 -28.453125 C 2.140625 -28.585938 2.140625 -28.769531 2.140625 -29 C 2.171875 -29.40625 2.382812 -29.617188 2.78125 -29.640625 C 3.789062 -29.734375 4.785156 -29.785156 5.765625 -29.796875 C 6.753906 -29.804688 7.75 -29.785156 8.75 -29.734375 C 9.15625 -29.703125 9.359375 -29.488281 9.359375 -29.09375 L 9.359375 -0.8125 C 9.359375 -0.414062 9.15625 -0.21875 8.75 -0.21875 Z M 8.75 -0.21875 "/></g></g></g><g fill="#000000" fill-opacity="1"><g transform="translate(138.122304, 33.447009)"><g><path d="M 26.5625 -29.140625 L 26.5625 -19.046875 C 26.5625 -18.648438 26.359375 -18.453125 25.953125 -18.453125 C 24.722656 -18.421875 23.492188 -18.40625 22.265625 -18.40625 C 21.035156 -18.40625 19.789062 -18.390625 18.53125 -18.359375 C 18.132812 -18.359375 17.9375 -18.160156 17.9375 -17.765625 L 17.9375 -0.734375 C 17.9375 -0.328125 17.722656 -0.125 17.296875 -0.125 L 11.328125 -0.125 C 10.929688 -0.125 10.71875 -0.328125 10.6875 -0.734375 C 10.601562 -3.535156 10.59375 -6.394531 10.65625 -9.3125 C 10.726562 -12.226562 10.738281 -15.085938 10.6875 -17.890625 C 10.6875 -18.296875 10.484375 -18.507812 10.078125 -18.53125 C 8.847656 -18.59375 7.632812 -18.613281 6.4375 -18.59375 C 5.238281 -18.582031 4.035156 -18.648438 2.828125 -18.796875 C 2.429688 -18.847656 2.21875 -19.078125 2.1875 -19.484375 C 2.1875 -19.617188 2.175781 -19.757812 2.15625 -19.90625 C 2.144531 -20.050781 2.140625 -20.195312 2.140625 -20.34375 C 2.140625 -21.769531 2.144531 -23.117188 2.15625 -24.390625 C 2.175781 -25.660156 2.203125 -27 2.234375 -28.40625 C 2.234375 -29.09375 2.300781 -29.515625 2.4375 -29.671875 C 2.582031 -29.828125 3 -29.90625 3.6875 -29.90625 C 6.125 -29.875 8.570312 -29.847656 11.03125 -29.828125 C 13.488281 -29.816406 15.945312 -29.8125 18.40625 -29.8125 C 19.519531 -29.8125 20.640625 -29.8125 21.765625 -29.8125 C 22.898438 -29.8125 24.039062 -29.8125 25.1875 -29.8125 C 25.300781 -29.8125 25.421875 -29.804688 25.546875 -29.796875 C 25.679688 -29.785156 25.816406 -29.78125 25.953125 -29.78125 C 26.359375 -29.75 26.5625 -29.535156 26.5625 -29.140625 Z M 26.5625 -29.140625 "/></g></g></g><g fill="#000000" fill-opacity="1"><g transform="translate(166.437867, 33.447009)"><g/></g></g><g fill="#000000" fill-opacity="1"><g transform="translate(180.552728, 33.447009)"><g><path d="M 26.5625 -18.40625 C 26.382812 -18.40625 26.222656 -18.40625 26.078125 -18.40625 C 25.941406 -18.40625 25.800781 -18.40625 25.65625 -18.40625 C 24.144531 -18.40625 22.628906 -18.410156 21.109375 -18.421875 C 19.585938 -18.441406 18.070312 -18.453125 16.5625 -18.453125 C 15.84375 -18.484375 15.332031 -18.429688 15.03125 -18.296875 C 14.738281 -18.171875 14.5625 -18.03125 14.5 -17.875 C 14.445312 -17.71875 14.421875 -17.59375 14.421875 -17.5 C 14.441406 -17.363281 14.535156 -17.179688 14.703125 -16.953125 C 14.878906 -16.722656 15.253906 -16.519531 15.828125 -16.34375 C 15.941406 -16.3125 16.226562 -16.238281 16.6875 -16.125 C 17.144531 -16.019531 17.671875 -15.894531 18.265625 -15.75 C 18.867188 -15.601562 19.453125 -15.457031 20.015625 -15.3125 C 20.578125 -15.175781 21.03125 -15.050781 21.375 -14.9375 C 21.96875 -14.707031 22.554688 -14.441406 23.140625 -14.140625 C 23.734375 -13.835938 24.285156 -13.488281 24.796875 -13.09375 C 26.140625 -12.113281 27.0625 -10.820312 27.5625 -9.21875 C 28.0625 -7.625 28 -6.039062 27.375 -4.46875 C 26.882812 -3.289062 26.1875 -2.394531 25.28125 -1.78125 C 24.382812 -1.164062 23.378906 -0.703125 22.265625 -0.390625 C 21.378906 -0.128906 20.453125 0 19.484375 0 C 16.878906 0 14.265625 -0.00390625 11.640625 -0.015625 C 9.023438 -0.0351562 6.414062 -0.0546875 3.8125 -0.078125 C 3.726562 -0.078125 3.628906 -0.09375 3.515625 -0.125 C 3.285156 -0.15625 3.15625 -0.382812 3.125 -0.8125 C 3.070312 -1.332031 3.035156 -2.023438 3.015625 -2.890625 C 3.003906 -3.765625 3.003906 -4.703125 3.015625 -5.703125 C 3.035156 -6.703125 3.066406 -7.648438 3.109375 -8.546875 C 3.148438 -9.453125 3.203125 -10.191406 3.265625 -10.765625 C 3.316406 -11.222656 3.570312 -11.453125 4.03125 -11.453125 C 4.175781 -11.453125 4.328125 -11.453125 4.484375 -11.453125 C 4.640625 -11.453125 4.789062 -11.453125 4.9375 -11.453125 C 6.25 -11.484375 7.554688 -11.519531 8.859375 -11.5625 C 10.160156 -11.601562 11.457031 -11.65625 12.75 -11.71875 C 13.09375 -11.738281 13.425781 -11.789062 13.75 -11.875 C 14.082031 -11.96875 14.390625 -12.085938 14.671875 -12.234375 C 15.191406 -12.429688 15.460938 -12.726562 15.484375 -13.125 C 15.515625 -13.53125 15.285156 -13.859375 14.796875 -14.109375 C 14.515625 -14.316406 14.203125 -14.484375 13.859375 -14.609375 C 13.515625 -14.734375 13.171875 -14.84375 12.828125 -14.9375 C 12.054688 -15.132812 11.273438 -15.3125 10.484375 -15.46875 C 9.703125 -15.625 8.925781 -15.800781 8.15625 -16 C 7.175781 -16.257812 6.265625 -16.625 5.421875 -17.09375 C 4.578125 -17.570312 3.859375 -18.238281 3.265625 -19.09375 C 2.722656 -19.832031 2.378906 -20.734375 2.234375 -21.796875 C 2.085938 -22.859375 2.164062 -23.925781 2.46875 -25 C 2.769531 -26.070312 3.332031 -27.03125 4.15625 -27.875 C 4.988281 -28.71875 6.117188 -29.296875 7.546875 -29.609375 C 8.660156 -29.859375 9.78125 -30 10.90625 -30.03125 C 12.039062 -30.0625 13.179688 -30.046875 14.328125 -29.984375 C 16.078125 -29.929688 17.820312 -29.910156 19.5625 -29.921875 C 21.3125 -29.941406 23.070312 -29.953125 24.84375 -29.953125 C 25.007812 -29.953125 25.191406 -29.953125 25.390625 -29.953125 C 25.597656 -29.953125 25.816406 -29.953125 26.046875 -29.953125 C 26.503906 -29.953125 26.757812 -29.722656 26.8125 -29.265625 C 26.988281 -27.691406 27.078125 -26.015625 27.078125 -24.234375 C 27.078125 -22.460938 27.132812 -20.75 27.25 -19.09375 C 27.25 -18.914062 27.179688 -18.753906 27.046875 -18.609375 C 26.921875 -18.472656 26.757812 -18.40625 26.5625 -18.40625 Z M 26.5625 -18.40625 "/></g></g></g><g fill="#000000" fill-opacity="1"><g transform="translate(210.198255, 33.447009)"><g><path d="M 8.75 -0.21875 L 3.046875 -0.21875 C 2.648438 -0.21875 2.4375 -0.414062 2.40625 -0.8125 C 2.375 -1.238281 2.335938 -1.660156 2.296875 -2.078125 C 2.253906 -2.492188 2.234375 -2.914062 2.234375 -3.34375 C 2.234375 -5.71875 2.234375 -8.09375 2.234375 -10.46875 C 2.234375 -12.84375 2.21875 -15.203125 2.1875 -17.546875 C 2.1875 -19.378906 2.175781 -21.195312 2.15625 -23 C 2.144531 -24.800781 2.140625 -26.617188 2.140625 -28.453125 C 2.140625 -28.585938 2.140625 -28.769531 2.140625 -29 C 2.171875 -29.40625 2.382812 -29.617188 2.78125 -29.640625 C 3.789062 -29.734375 4.785156 -29.785156 5.765625 -29.796875 C 6.753906 -29.804688 7.75 -29.785156 8.75 -29.734375 C 9.15625 -29.703125 9.359375 -29.488281 9.359375 -29.09375 L 9.359375 -0.8125 C 9.359375 -0.414062 9.15625 -0.21875 8.75 -0.21875 Z M 8.75 -0.21875 "/></g></g></g><g fill="#000000" fill-opacity="1"><g transform="translate(221.309951, 33.447009)"><g><path d="M 26.5625 -18.40625 C 26.382812 -18.40625 26.222656 -18.40625 26.078125 -18.40625 C 25.941406 -18.40625 25.800781 -18.40625 25.65625 -18.40625 C 24.144531 -18.40625 22.628906 -18.410156 21.109375 -18.421875 C 19.585938 -18.441406 18.070312 -18.453125 16.5625 -18.453125 C 15.84375 -18.484375 15.332031 -18.429688 15.03125 -18.296875 C 14.738281 -18.171875 14.5625 -18.03125 14.5 -17.875 C 14.445312 -17.71875 14.421875 -17.59375 14.421875 -17.5 C 14.441406 -17.363281 14.535156 -17.179688 14.703125 -16.953125 C 14.878906 -16.722656 15.253906 -16.519531 15.828125 -16.34375 C 15.941406 -16.3125 16.226562 -16.238281 16.6875 -16.125 C 17.144531 -16.019531 17.671875 -15.894531 18.265625 -15.75 C 18.867188 -15.601562 19.453125 -15.457031 20.015625 -15.3125 C 20.578125 -15.175781 21.03125 -15.050781 21.375 -14.9375 C 21.96875 -14.707031 22.554688 -14.441406 23.140625 -14.140625 C 23.734375 -13.835938 24.285156 -13.488281 24.796875 -13.09375 C 26.140625 -12.113281 27.0625 -10.820312 27.5625 -9.21875 C 28.0625 -7.625 28 -6.039062 27.375 -4.46875 C 26.882812 -3.289062 26.1875 -2.394531 25.28125 -1.78125 C 24.382812 -1.164062 23.378906 -0.703125 22.265625 -0.390625 C 21.378906 -0.128906 20.453125 0 19.484375 0 C 16.878906 0 14.265625 -0.00390625 11.640625 -0.015625 C 9.023438 -0.0351562 6.414062 -0.0546875 3.8125 -0.078125 C 3.726562 -0.078125 3.628906 -0.09375 3.515625 -0.125 C 3.285156 -0.15625 3.15625 -0.382812 3.125 -0.8125 C 3.070312 -1.332031 3.035156 -2.023438 3.015625 -2.890625 C 3.003906 -3.765625 3.003906 -4.703125 3.015625 -5.703125 C 3.035156 -6.703125 3.066406 -7.648438 3.109375 -8.546875 C 3.148438 -9.453125 3.203125 -10.191406 3.265625 -10.765625 C 3.316406 -11.222656 3.570312 -11.453125 4.03125 -11.453125 C 4.175781 -11.453125 4.328125 -11.453125 4.484375 -11.453125 C 4.640625 -11.453125 4.789062 -11.453125 4.9375 -11.453125 C 6.25 -11.484375 7.554688 -11.519531 8.859375 -11.5625 C 10.160156 -11.601562 11.457031 -11.65625 12.75 -11.71875 C 13.09375 -11.738281 13.425781 -11.789062 13.75 -11.875 C 14.082031 -11.96875 14.390625 -12.085938 14.671875 -12.234375 C 15.191406 -12.429688 15.460938 -12.726562 15.484375 -13.125 C 15.515625 -13.53125 15.285156 -13.859375 14.796875 -14.109375 C 14.515625 -14.316406 14.203125 -14.484375 13.859375 -14.609375 C 13.515625 -14.734375 13.171875 -14.84375 12.828125 -14.9375 C 12.054688 -15.132812 11.273438 -15.3125 10.484375 -15.46875 C 9.703125 -15.625 8.925781 -15.800781 8.15625 -16 C 7.175781 -16.257812 6.265625 -16.625 5.421875 -17.09375 C 4.578125 -17.570312 3.859375 -18.238281 3.265625 -19.09375 C 2.722656 -19.832031 2.378906 -20.734375 2.234375 -21.796875 C 2.085938 -22.859375 2.164062 -23.925781 2.46875 -25 C 2.769531 -26.070312 3.332031 -27.03125 4.15625 -27.875 C 4.988281 -28.71875 6.117188 -29.296875 7.546875 -29.609375 C 8.660156 -29.859375 9.78125 -30 10.90625 -30.03125 C 12.039062 -30.0625 13.179688 -30.046875 14.328125 -29.984375 C 16.078125 -29.929688 17.820312 -29.910156 19.5625 -29.921875 C 21.3125 -29.941406 23.070312 -29.953125 24.84375 -29.953125 C 25.007812 -29.953125 25.191406 -29.953125 25.390625 -29.953125 C 25.597656 -29.953125 25.816406 -29.953125 26.046875 -29.953125 C 26.503906 -29.953125 26.757812 -29.722656 26.8125 -29.265625 C 26.988281 -27.691406 27.078125 -26.015625 27.078125 -24.234375 C 27.078125 -22.460938 27.132812 -20.75 27.25 -19.09375 C 27.25 -18.914062 27.179688 -18.753906 27.046875 -18.609375 C 26.921875 -18.472656 26.757812 -18.40625 26.5625 -18.40625 Z M 26.5625 -18.40625 "/></g></g></g><g fill="#000000" fill-opacity="1"><g transform="translate(250.955478, 33.447009)"><g><path d="M 26.5625 -29.140625 L 26.5625 -19.046875 C 26.5625 -18.648438 26.359375 -18.453125 25.953125 -18.453125 C 24.722656 -18.421875 23.492188 -18.40625 22.265625 -18.40625 C 21.035156 -18.40625 19.789062 -18.390625 18.53125 -18.359375 C 18.132812 -18.359375 17.9375 -18.160156 17.9375 -17.765625 L 17.9375 -0.734375 C 17.9375 -0.328125 17.722656 -0.125 17.296875 -0.125 L 11.328125 -0.125 C 10.929688 -0.125 10.71875 -0.328125 10.6875 -0.734375 C 10.601562 -3.535156 10.59375 -6.394531 10.65625 -9.3125 C 10.726562 -12.226562 10.738281 -15.085938 10.6875 -17.890625 C 10.6875 -18.296875 10.484375 -18.507812 10.078125 -18.53125 C 8.847656 -18.59375 7.632812 -18.613281 6.4375 -18.59375 C 5.238281 -18.582031 4.035156 -18.648438 2.828125 -18.796875 C 2.429688 -18.847656 2.21875 -19.078125 2.1875 -19.484375 C 2.1875 -19.617188 2.175781 -19.757812 2.15625 -19.90625 C 2.144531 -20.050781 2.140625 -20.195312 2.140625 -20.34375 C 2.140625 -21.769531 2.144531 -23.117188 2.15625 -24.390625 C 2.175781 -25.660156 2.203125 -27 2.234375 -28.40625 C 2.234375 -29.09375 2.300781 -29.515625 2.4375 -29.671875 C 2.582031 -29.828125 3 -29.90625 3.6875 -29.90625 C 6.125 -29.875 8.570312 -29.847656 11.03125 -29.828125 C 13.488281 -29.816406 15.945312 -29.8125 18.40625 -29.8125 C 19.519531 -29.8125 20.640625 -29.8125 21.765625 -29.8125 C 22.898438 -29.8125 24.039062 -29.8125 25.1875 -29.8125 C 25.300781 -29.8125 25.421875 -29.804688 25.546875 -29.796875 C 25.679688 -29.785156 25.816406 -29.78125 25.953125 -29.78125 C 26.359375 -29.75 26.5625 -29.535156 26.5625 -29.140625 Z M 26.5625 -29.140625 "/></g></g></g><g fill="#000000" fill-opacity="1"><g transform="translate(279.271064, 33.447009)"><g><path d="M 2.140625 -29.140625 C 2.140625 -29.535156 2.34375 -29.734375 2.75 -29.734375 C 6.664062 -29.785156 10.546875 -29.796875 14.390625 -29.765625 C 18.242188 -29.742188 22.097656 -29.757812 25.953125 -29.8125 C 26.390625 -29.8125 26.609375 -29.613281 26.609375 -29.21875 C 26.691406 -27.445312 26.734375 -25.785156 26.734375 -24.234375 C 26.734375 -22.691406 26.734375 -21.035156 26.734375 -19.265625 C 26.734375 -18.867188 26.53125 -18.65625 26.125 -18.625 C 24.757812 -18.5625 23.414062 -18.53125 22.09375 -18.53125 C 20.78125 -18.53125 19.476562 -18.53125 18.1875 -18.53125 C 16.875 -18.53125 15.554688 -18.53125 14.234375 -18.53125 C 12.921875 -18.53125 11.582031 -18.53125 10.21875 -18.53125 C 9.8125 -18.53125 9.59375 -18.332031 9.5625 -17.9375 C 9.539062 -17.851562 9.53125 -17.765625 9.53125 -17.671875 C 9.5 -17.273438 9.679688 -17.078125 10.078125 -17.078125 L 15.828125 -17.078125 C 16.234375 -17.078125 16.4375 -16.875 16.4375 -16.46875 L 16.4375 -14.109375 C 16.4375 -13.710938 16.234375 -13.5 15.828125 -13.46875 C 15.023438 -13.4375 14.421875 -13.421875 14.015625 -13.421875 C 13.617188 -13.421875 13.289062 -13.421875 13.03125 -13.421875 C 12.78125 -13.421875 12.453125 -13.421875 12.046875 -13.421875 C 11.648438 -13.421875 11.050781 -13.410156 10.25 -13.390625 C 9.851562 -13.359375 9.65625 -13.144531 9.65625 -12.75 L 9.65625 -12.015625 C 9.65625 -11.609375 9.851562 -11.40625 10.25 -11.40625 C 12.914062 -11.289062 15.578125 -11.3125 18.234375 -11.46875 C 20.890625 -11.632812 23.535156 -11.644531 26.171875 -11.5 C 26.597656 -11.46875 26.84375 -11.253906 26.90625 -10.859375 C 26.957031 -10.367188 27.003906 -9.6875 27.046875 -8.8125 C 27.085938 -7.945312 27.113281 -7.019531 27.125 -6.03125 C 27.144531 -5.039062 27.144531 -4.09375 27.125 -3.1875 C 27.113281 -2.289062 27.082031 -1.554688 27.03125 -0.984375 C 27 -0.585938 26.785156 -0.359375 26.390625 -0.296875 C 25.785156 -0.242188 24.878906 -0.203125 23.671875 -0.171875 C 22.472656 -0.140625 21.09375 -0.109375 19.53125 -0.078125 C 17.976562 -0.0546875 16.363281 -0.046875 14.6875 -0.046875 C 13.019531 -0.046875 11.40625 -0.046875 9.84375 -0.046875 C 8.289062 -0.046875 6.910156 -0.0546875 5.703125 -0.078125 C 4.503906 -0.109375 3.601562 -0.15625 3 -0.21875 C 2.851562 -0.238281 2.71875 -0.320312 2.59375 -0.46875 C 2.46875 -0.613281 2.40625 -0.757812 2.40625 -0.90625 C 2.375 -5.5625 2.335938 -10.234375 2.296875 -14.921875 C 2.253906 -19.617188 2.203125 -24.359375 2.140625 -29.140625 Z M 2.140625 -29.140625 "/></g></g></g><g fill="#000000" fill-opacity="1"><g transform="translate(308.144365, 33.447009)"><g><path d="M 24.234375 -4.25 C 24.554688 -3.726562 24.878906 -3.203125 25.203125 -2.671875 C 25.535156 -2.148438 25.875 -1.585938 26.21875 -0.984375 C 26.414062 -0.640625 26.328125 -0.425781 25.953125 -0.34375 C 25.703125 -0.257812 25.503906 -0.21875 25.359375 -0.21875 C 23.835938 -0.21875 22.316406 -0.21875 20.796875 -0.21875 C 19.285156 -0.21875 17.773438 -0.203125 16.265625 -0.171875 C 15.660156 -0.171875 15.160156 -0.425781 14.765625 -0.9375 C 14.160156 -1.800781 13.539062 -2.65625 12.90625 -3.5 C 12.28125 -4.34375 11.664062 -5.175781 11.0625 -6 C 10.863281 -6.257812 10.679688 -6.476562 10.515625 -6.65625 C 10.398438 -6.769531 10.285156 -6.800781 10.171875 -6.75 C 10.054688 -6.707031 9.984375 -6.617188 9.953125 -6.484375 C 9.753906 -5.566406 9.675781 -4.648438 9.71875 -3.734375 C 9.757812 -2.816406 9.738281 -1.898438 9.65625 -0.984375 C 9.625 -0.585938 9.410156 -0.359375 9.015625 -0.296875 C 8.035156 -0.210938 7.050781 -0.175781 6.0625 -0.1875 C 5.082031 -0.207031 4.078125 -0.203125 3.046875 -0.171875 C 2.648438 -0.140625 2.4375 -0.328125 2.40625 -0.734375 C 2.375 -1.210938 2.335938 -1.664062 2.296875 -2.09375 C 2.253906 -2.53125 2.234375 -2.960938 2.234375 -3.390625 C 2.234375 -5.765625 2.234375 -8.140625 2.234375 -10.515625 C 2.234375 -12.890625 2.234375 -15.265625 2.234375 -17.640625 C 2.203125 -19.441406 2.175781 -21.25 2.15625 -23.0625 C 2.144531 -24.875 2.140625 -26.695312 2.140625 -28.53125 C 2.140625 -28.613281 2.140625 -28.707031 2.140625 -28.8125 C 2.140625 -28.914062 2.15625 -29.035156 2.1875 -29.171875 C 2.21875 -29.578125 2.429688 -29.78125 2.828125 -29.78125 C 3.921875 -29.800781 5.007812 -29.8125 6.09375 -29.8125 C 7.175781 -29.8125 8.265625 -29.828125 9.359375 -29.859375 C 10.472656 -29.859375 11.59375 -29.859375 12.71875 -29.859375 C 13.851562 -29.859375 14.988281 -29.859375 16.125 -29.859375 C 17.039062 -29.828125 17.957031 -29.796875 18.875 -29.765625 C 19.789062 -29.742188 20.707031 -29.71875 21.625 -29.6875 C 22.363281 -29.632812 23.003906 -29.414062 23.546875 -29.03125 C 24.097656 -28.644531 24.53125 -28.117188 24.84375 -27.453125 C 25.695312 -25.679688 26.195312 -23.859375 26.34375 -21.984375 C 26.488281 -20.109375 26.300781 -18.226562 25.78125 -16.34375 C 25.664062 -15.882812 25.492188 -15.445312 25.265625 -15.03125 C 25.035156 -14.625 24.796875 -14.21875 24.546875 -13.8125 C 24.140625 -13.125 23.628906 -12.59375 23.015625 -12.21875 C 22.398438 -11.851562 21.679688 -11.6875 20.859375 -11.71875 C 20.765625 -11.71875 20.617188 -11.703125 20.421875 -11.671875 C 20.140625 -11.640625 20.097656 -11.453125 20.296875 -11.109375 C 20.609375 -10.566406 20.921875 -10.03125 21.234375 -9.5 C 21.546875 -8.96875 21.847656 -8.445312 22.140625 -7.9375 C 22.484375 -7.3125 22.828125 -6.691406 23.171875 -6.078125 C 23.515625 -5.460938 23.867188 -4.851562 24.234375 -4.25 Z M 17.421875 -20.6875 C 17.453125 -21.113281 17.457031 -21.519531 17.4375 -21.90625 C 17.425781 -22.289062 17.40625 -22.566406 17.375 -22.734375 C 17.375 -22.828125 17.359375 -22.898438 17.328125 -22.953125 C 17.273438 -23.066406 17.21875 -23.15625 17.15625 -23.21875 C 16.90625 -23.582031 16.394531 -23.820312 15.625 -23.9375 C 15.28125 -24 14.945312 -24.046875 14.625 -24.078125 L 14.59375 -24.078125 C 14.382812 -24.078125 14.164062 -24.078125 13.9375 -24.078125 C 13.3125 -24.097656 12.675781 -24.101562 12.03125 -24.09375 C 11.382812 -24.082031 10.734375 -24.078125 10.078125 -24.078125 C 10.054688 -24.078125 9.972656 -24.0625 9.828125 -24.03125 C 9.679688 -24.03125 9.609375 -23.988281 9.609375 -23.90625 C 9.640625 -22.875 9.65625 -21.851562 9.65625 -20.84375 C 9.65625 -19.84375 9.671875 -18.832031 9.703125 -17.8125 C 9.703125 -17.71875 9.742188 -17.660156 9.828125 -17.640625 C 9.878906 -17.640625 9.90625 -17.640625 9.90625 -17.640625 C 10.539062 -17.640625 11.171875 -17.640625 11.796875 -17.640625 C 12.429688 -17.640625 13.046875 -17.640625 13.640625 -17.640625 L 13.6875 -17.640625 C 14.3125 -17.640625 14.898438 -17.664062 15.453125 -17.71875 C 16.242188 -17.832031 16.785156 -18.035156 17.078125 -18.328125 L 17.078125 -18.359375 C 17.273438 -18.566406 17.375 -18.851562 17.375 -19.21875 C 17.40625 -19.414062 17.421875 -19.628906 17.421875 -19.859375 C 17.421875 -19.890625 17.421875 -19.90625 17.421875 -19.90625 C 17.421875 -19.988281 17.421875 -20.0625 17.421875 -20.125 C 17.421875 -20.207031 17.421875 -20.296875 17.421875 -20.390625 C 17.421875 -20.492188 17.421875 -20.59375 17.421875 -20.6875 Z M 17.421875 -20.6875 "/></g></g></g><g fill="#000000" fill-opacity="1"><g transform="translate(336.288315, 33.447009)"><g><path d="M 26.5625 -18.40625 C 26.382812 -18.40625 26.222656 -18.40625 26.078125 -18.40625 C 25.941406 -18.40625 25.800781 -18.40625 25.65625 -18.40625 C 24.144531 -18.40625 22.628906 -18.410156 21.109375 -18.421875 C 19.585938 -18.441406 18.070312 -18.453125 16.5625 -18.453125 C 15.84375 -18.484375 15.332031 -18.429688 15.03125 -18.296875 C 14.738281 -18.171875 14.5625 -18.03125 14.5 -17.875 C 14.445312 -17.71875 14.421875 -17.59375 14.421875 -17.5 C 14.441406 -17.363281 14.535156 -17.179688 14.703125 -16.953125 C 14.878906 -16.722656 15.253906 -16.519531 15.828125 -16.34375 C 15.941406 -16.3125 16.226562 -16.238281 16.6875 -16.125 C 17.144531 -16.019531 17.671875 -15.894531 18.265625 -15.75 C 18.867188 -15.601562 19.453125 -15.457031 20.015625 -15.3125 C 20.578125 -15.175781 21.03125 -15.050781 21.375 -14.9375 C 21.96875 -14.707031 22.554688 -14.441406 23.140625 -14.140625 C 23.734375 -13.835938 24.285156 -13.488281 24.796875 -13.09375 C 26.140625 -12.113281 27.0625 -10.820312 27.5625 -9.21875 C 28.0625 -7.625 28 -6.039062 27.375 -4.46875 C 26.882812 -3.289062 26.1875 -2.394531 25.28125 -1.78125 C 24.382812 -1.164062 23.378906 -0.703125 22.265625 -0.390625 C 21.378906 -0.128906 20.453125 0 19.484375 0 C 16.878906 0 14.265625 -0.00390625 11.640625 -0.015625 C 9.023438 -0.0351562 6.414062 -0.0546875 3.8125 -0.078125 C 3.726562 -0.078125 3.628906 -0.09375 3.515625 -0.125 C 3.285156 -0.15625 3.15625 -0.382812 3.125 -0.8125 C 3.070312 -1.332031 3.035156 -2.023438 3.015625 -2.890625 C 3.003906 -3.765625 3.003906 -4.703125 3.015625 -5.703125 C 3.035156 -6.703125 3.066406 -7.648438 3.109375 -8.546875 C 3.148438 -9.453125 3.203125 -10.191406 3.265625 -10.765625 C 3.316406 -11.222656 3.570312 -11.453125 4.03125 -11.453125 C 4.175781 -11.453125 4.328125 -11.453125 4.484375 -11.453125 C 4.640625 -11.453125 4.789062 -11.453125 4.9375 -11.453125 C 6.25 -11.484375 7.554688 -11.519531 8.859375 -11.5625 C 10.160156 -11.601562 11.457031 -11.65625 12.75 -11.71875 C 13.09375 -11.738281 13.425781 -11.789062 13.75 -11.875 C 14.082031 -11.96875 14.390625 -12.085938 14.671875 -12.234375 C 15.191406 -12.429688 15.460938 -12.726562 15.484375 -13.125 C 15.515625 -13.53125 15.285156 -13.859375 14.796875 -14.109375 C 14.515625 -14.316406 14.203125 -14.484375 13.859375 -14.609375 C 13.515625 -14.734375 13.171875 -14.84375 12.828125 -14.9375 C 12.054688 -15.132812 11.273438 -15.3125 10.484375 -15.46875 C 9.703125 -15.625 8.925781 -15.800781 8.15625 -16 C 7.175781 -16.257812 6.265625 -16.625 5.421875 -17.09375 C 4.578125 -17.570312 3.859375 -18.238281 3.265625 -19.09375 C 2.722656 -19.832031 2.378906 -20.734375 2.234375 -21.796875 C 2.085938 -22.859375 2.164062 -23.925781 2.46875 -25 C 2.769531 -26.070312 3.332031 -27.03125 4.15625 -27.875 C 4.988281 -28.71875 6.117188 -29.296875 7.546875 -29.609375 C 8.660156 -29.859375 9.78125 -30 10.90625 -30.03125 C 12.039062 -30.0625 13.179688 -30.046875 14.328125 -29.984375 C 16.078125 -29.929688 17.820312 -29.910156 19.5625 -29.921875 C 21.3125 -29.941406 23.070312 -29.953125 24.84375 -29.953125 C 25.007812 -29.953125 25.191406 -29.953125 25.390625 -29.953125 C 25.597656 -29.953125 25.816406 -29.953125 26.046875 -29.953125 C 26.503906 -29.953125 26.757812 -29.722656 26.8125 -29.265625 C 26.988281 -27.691406 27.078125 -26.015625 27.078125 -24.234375 C 27.078125 -22.460938 27.132812 -20.75 27.25 -19.09375 C 27.25 -18.914062 27.179688 -18.753906 27.046875 -18.609375 C 26.921875 -18.472656 26.757812 -18.40625 26.5625 -18.40625 Z M 26.5625 -18.40625 "/></g></g></g></g></g></svg>